<svg width="232" height="113" viewBox="0 0 232 113" fill="none" xmlns="http://www.w3.org/2000/svg">
<path d="M63.9722 68.7581C64.5051 68.7581 64.9941 69.0543 65.2419 69.5273L69.2279 77.1367C69.7621 78.1565 71.2159 78.1639 71.7605 77.1496L75.8593 69.5144C76.1094 69.0486 76.5945 68.7581 77.1222 68.7581H82.5218C83.6268 68.7581 84.3167 69.9581 83.7627 70.9166L76.5275 83.4345C76.2668 83.8855 76.27 84.4426 76.5359 84.8905L83.9606 97.399C84.5295 98.3574 83.8406 99.5719 82.7282 99.5719H77.3783C76.8634 99.5719 76.3879 99.2952 76.1327 98.8468L71.7381 91.1261C71.1855 90.1552 69.7875 90.1602 69.2418 91.135L64.9297 98.8378C64.6759 99.2912 64.1977 99.5719 63.679 99.5719H58.2332C57.1214 99.5719 56.4324 98.3586 57 97.4002L64.4119 84.8861C64.6758 84.4405 64.68 83.887 64.4231 83.4374L57.264 70.9105C56.7163 69.952 57.4066 68.7581 58.5084 68.7581H63.9722Z" fill="#7836C2"/>
<path d="M86.9169 74.1294C86.1248 74.1294 85.4827 73.4858 85.4827 72.6917V70.1958C85.4827 69.4018 86.1248 68.7581 86.9169 68.7581H109.293C110.085 68.7581 110.727 69.4018 110.727 70.1958V72.6917C110.727 73.4858 110.085 74.1294 109.293 74.1294H102.751C101.959 74.1294 101.317 74.7731 101.317 75.5671V98.1342C101.317 98.9283 100.675 99.5719 99.883 99.5719H96.3272C95.5351 99.5719 94.893 98.9283 94.893 98.1342V75.5671C94.893 74.7731 94.2509 74.1294 93.4589 74.1294H86.9169Z" fill="#7836C2"/>
<path d="M35.8203 99.5719C35.0282 99.5719 34.3862 98.9283 34.3862 98.1342V70.1958C34.3862 69.4018 35.0282 68.7581 35.8203 68.7581H53.6637C54.4557 68.7581 55.0978 69.4018 55.0978 70.1958V72.6917C55.0978 73.4858 54.4557 74.1294 53.6637 74.1294H42.3189C41.5269 74.1294 40.8848 74.7731 40.8848 75.5671V80.0341C40.8848 80.8281 41.5269 81.4718 42.3189 81.4718H52.5981C53.3901 81.4718 54.0322 82.1155 54.0322 82.9095V85.4055C54.0322 86.1995 53.3901 86.8432 52.5981 86.8432H42.3189C41.5269 86.8432 40.8848 87.4868 40.8848 88.2809V92.7629C40.8848 93.5569 41.5269 94.2006 42.3189 94.2006H53.7237C54.5158 94.2006 55.1578 94.8442 55.1578 95.6383V98.1342C55.1578 98.9283 54.5158 99.5719 53.7237 99.5719H35.8203Z" fill="#7836C2"/>
<path d="M1.44285 63.038C1.16407 63.2078 1 63.5125 1 63.8396V98.6135C1 99.1428 1.42805 99.5719 1.95608 99.5719H10.303C10.8311 99.5719 11.2591 99.1428 11.2591 98.6135V73.2779C11.2591 66.6728 21.6282 66.6728 21.6282 73.2779V98.6135C21.6282 99.1428 22.0562 99.5719 22.5843 99.5719H30.6247C31.1527 99.5719 31.5808 99.1428 31.5808 98.6135V69.1971C31.5808 69.117 31.5704 69.0351 31.5499 68.9577C28.4298 57.1638 11.5562 56.8774 1.44285 63.038Z" fill="#7836C2"/>
<path d="M231 84.1099C231 87.3808 230.382 90.1635 229.145 92.458C227.917 94.7525 226.242 96.5051 224.119 97.7158C222.005 98.9168 219.629 99.5173 216.99 99.5173C214.331 99.5173 211.945 98.9119 209.831 97.7012C207.718 96.4905 206.047 94.7379 204.82 92.4434C203.593 90.1489 202.979 87.3711 202.979 84.1099C202.979 80.8391 203.593 78.0564 204.82 75.7619C206.047 73.4674 207.718 71.7196 209.831 70.5187C211.945 69.308 214.331 68.7026 216.99 68.7026C219.629 68.7026 222.005 69.308 224.119 70.5187C226.242 71.7196 227.917 73.4674 229.145 75.7619C230.382 78.0564 231 80.8391 231 84.1099ZM224.586 84.1099C224.586 81.9912 224.27 80.2044 223.637 78.7496C223.014 77.2948 222.132 76.1915 220.993 75.4397C219.853 74.6878 218.519 74.3119 216.99 74.3119C215.46 74.3119 214.126 74.6878 212.987 75.4397C211.847 76.1915 210.961 77.2948 210.328 78.7496C209.704 80.2044 209.393 81.9912 209.393 84.1099C209.393 86.2287 209.704 88.0155 210.328 89.4703C210.961 90.9251 211.847 92.0284 212.987 92.7802C214.126 93.532 215.46 93.908 216.99 93.908C218.519 93.908 219.853 93.532 220.993 92.7802C222.132 92.0284 223.014 90.9251 223.637 89.4703C224.27 88.0155 224.586 86.2287 224.586 84.1099Z" fill="#5BFF8D"/>
<path d="M178.271 97.6062C178.706 98.2422 178.252 99.1072 177.483 99.1072H171.989C171.675 99.1072 171.381 98.9526 171.203 98.6937L158.514 80.291C158.487 80.2521 158.443 80.2288 158.395 80.2288C158.316 80.2288 158.252 80.2933 158.252 80.3729V98.1487C158.252 98.6781 157.823 99.1072 157.295 99.1072H152.882C152.354 99.1072 151.926 98.6781 151.926 98.1487V70.0712C151.926 69.5418 152.354 69.1127 152.882 69.1127H158.252C158.567 69.1127 158.862 69.2683 159.04 69.5286L178.271 97.6062Z" fill="#5BFF8D"/>
<path d="M194.731 78.1582C194.307 78.1961 193.915 77.9442 193.723 77.5624C193.512 77.1404 193.267 76.7586 192.988 76.4169C192.571 75.8955 192.078 75.4689 191.511 75.1372C190.952 74.7949 190.325 74.5519 189.627 74.4083C188.94 74.2637 188.189 74.2278 187.374 74.3005C185.851 74.4364 184.546 74.9351 183.459 75.7967C182.381 76.6574 181.587 77.8408 181.075 79.347C180.562 80.8435 180.398 82.6323 180.583 84.7136C180.768 86.7948 181.24 88.5367 182 89.9393C182.76 91.3418 183.752 92.3758 184.974 93.0411C186.196 93.6967 187.593 93.9544 189.165 93.8142C190.591 93.687 191.786 93.3256 192.75 92.7298C193.723 92.1235 194.434 91.3297 194.885 90.3485C195.333 89.3927 195.51 88.2986 195.415 87.0662C195.41 87.0125 195.454 86.9671 195.508 86.9702C195.617 86.9766 195.619 87.1365 195.51 87.1461L189.546 87.6782C189.255 87.7041 188.999 87.4891 188.973 87.198L188.683 83.9241C188.636 83.3968 189.024 82.9314 189.55 82.8844L200.117 81.9419C200.643 81.895 201.107 82.2844 201.154 82.8116L201.403 85.6207C201.636 88.2465 201.283 90.5522 200.345 92.5375C199.406 94.5132 198.011 96.0982 196.161 97.2924C194.311 98.4769 192.134 99.1808 189.631 99.4041C186.837 99.6533 184.328 99.2547 182.104 98.2082C179.878 97.152 178.072 95.5339 176.686 93.3541C175.308 91.1636 174.48 88.4928 174.2 85.3418C173.985 82.9201 174.143 80.73 174.673 78.7712C175.212 76.8018 176.058 75.0991 177.212 73.6631C178.365 72.2271 179.755 71.0886 181.382 70.2475C183.009 69.4064 184.807 68.898 186.776 68.7224C188.464 68.5718 190.058 68.6796 191.557 69.0458C193.055 69.4022 194.407 69.9777 195.612 70.772C196.826 71.5655 197.847 72.5478 198.674 73.7189C199.296 74.5921 199.779 75.5498 200.122 76.5919C200.304 77.144 199.902 77.697 199.324 77.7486L194.731 78.1582Z" fill="#5BFF8D"/>
<path fill-rule="evenodd" clip-rule="evenodd" d="M127.697 99.1072H122.954C122.297 99.1072 121.836 98.4584 122.05 97.836L131.719 69.7584C131.852 69.372 132.215 69.1127 132.622 69.1127H139.411C139.819 69.1127 140.182 69.3722 140.315 69.7588L149.97 97.8364C150.184 98.4588 149.723 99.1072 149.066 99.1072H144.323C143.909 99.1072 143.542 98.8397 143.414 98.4447L141.413 92.2676H130.611L128.606 98.4452C128.478 98.84 128.111 99.1072 127.697 99.1072ZM135.864 76.0783C135.886 76.0119 135.947 75.9669 136.017 75.9669C136.087 75.9669 136.149 76.0119 136.17 76.0784L139.81 87.3174H132.217L135.864 76.0783Z" fill="#5BFF8D"/>
<path d="M112.122 69.6588C112.119 69.102 112.569 68.6565 113.124 68.6565H119.308C119.853 68.6565 120.298 69.0785 120.308 69.6249C120.403 74.4996 120.812 95.1175 120.308 97.8364C119.761 100.791 117.742 103.245 111.476 109.237C111.115 109.582 110.563 109.603 110.179 109.307C110.096 109.244 110.021 109.17 109.938 109.106L105.15 104.866C105.067 104.802 104.986 104.734 104.926 104.648C104.64 104.232 104.707 103.652 105.098 103.307C110.957 98.1342 111.992 95.8025 112.122 94.59C112.241 93.4842 112.146 74.3425 112.122 69.6588Z" fill="#5BFF8D"/>
<path d="M94.3728 34.9259H107.037V23.0689C107.037 22.3033 108.475 22.2769 108.754 22.8781C108.754 22.8781 114.069 32.5763 117.587 39.0799C121.64 37.9395 121.498 35.8423 121.498 34.571V27.5533C120.958 27.5533 120.494 27.5533 120.256 27.2081L107.861 4.02956C107.608 3.59373 107.412 3.48607 106.94 3.48608H95.3588C94.6848 3.48607 94.3728 3.80526 94.3728 4.55929V34.9259Z" fill="#7836C2"/>
<path d="M107.037 34.9259H94.3728C94.4877 38.4473 95.7468 40.8906 98.1965 43.7259C106.395 53.2149 129.876 51.826 134.816 39.0799C135.54 37.2094 135.561 35.8605 135.627 34.0076V4.55761C135.627 4.29689 135.627 3.48608 134.627 3.48608L122.288 3.48608C121.688 3.48608 121.292 3.80006 121.292 4.55761L121.498 27.5533V34.571C121.498 35.8423 121.64 37.9395 117.587 39.0799C113.302 40.2855 107.408 38.4281 107.037 34.9259Z" fill="#5BFF8D"/>
</svg>
