<svg width="504" height="103" viewBox="0 0 504 103" fill="none" xmlns="http://www.w3.org/2000/svg">
<path d="M218.237 32.255C219.139 32.255 219.967 32.7564 220.386 33.5571L227.135 46.4376C228.04 48.1639 230.501 48.1764 231.423 46.4595L238.363 33.5352C238.787 32.7467 239.608 32.255 240.502 32.255H249.644C251.515 32.255 252.683 34.2863 251.745 35.9087L239.495 57.098C239.053 57.8614 239.059 58.8045 239.509 59.5626L252.08 80.736C253.044 82.3583 251.877 84.4141 249.994 84.4141H240.935C240.064 84.4141 239.258 83.9457 238.826 83.1867L231.386 70.1177C230.45 68.4743 228.083 68.4827 227.159 70.1328L219.858 83.1715C219.428 83.9389 218.618 84.4141 217.74 84.4141H208.519C206.637 84.4141 205.47 82.3603 206.431 80.738L218.981 59.5552C219.428 58.8009 219.435 57.864 219 57.1029L206.878 35.8984C205.951 34.2759 207.12 32.255 208.985 32.255H218.237Z" fill="#7836C2"/>
<path d="M257.086 41.3471C255.745 41.3471 254.658 40.2577 254.658 38.9135V34.6886C254.658 33.3446 255.745 32.255 257.086 32.255H294.972C296.313 32.255 297.4 33.3446 297.4 34.6886V38.9135C297.4 40.2577 296.313 41.3471 294.972 41.3471H283.896C282.555 41.3471 281.468 42.4367 281.468 43.7807V81.9805C281.468 83.3246 280.381 84.4141 279.04 84.4141H273.019C271.678 84.4141 270.591 83.3246 270.591 81.9805V43.7807C270.591 42.4367 269.504 41.3471 268.163 41.3471H257.086Z" fill="#7836C2"/>
<path d="M170.571 84.4141C169.229 84.4141 168.142 83.3246 168.142 81.9805V34.6886C168.142 33.3446 169.229 32.255 170.571 32.255H200.782C202.123 32.255 203.211 33.3446 203.211 34.6886V38.9135C203.211 40.2577 202.123 41.3471 200.782 41.3471H181.574C180.233 41.3471 179.146 42.4367 179.146 43.7807V51.3421C179.146 52.6861 180.233 53.7757 181.574 53.7757H198.978C200.319 53.7757 201.406 54.8653 201.406 56.2094V60.4344C201.406 61.7784 200.319 62.868 198.978 62.868H181.574C180.233 62.868 179.146 63.9574 179.146 65.3016V72.8884C179.146 74.2324 180.233 75.322 181.574 75.322H200.884C202.225 75.322 203.312 76.4114 203.312 77.7556V81.9805C203.312 83.3246 202.225 84.4141 200.884 84.4141H170.571Z" fill="#7836C2"/>
<path d="M112.364 22.5725C111.892 22.8599 111.614 23.3757 111.614 23.9294V82.7918C111.614 83.6877 112.339 84.4141 113.233 84.4141H127.365C128.26 84.4141 128.984 83.6877 128.984 82.7918V39.9058C128.984 28.7252 146.541 28.7252 146.541 39.9058V82.7918C146.541 83.6877 147.266 84.4141 148.16 84.4141H161.773C162.667 84.4141 163.392 83.6877 163.392 82.7918V32.9981C163.392 32.8625 163.375 32.7239 163.34 32.5929C158.057 12.6291 129.487 12.1443 112.364 22.5725Z" fill="#7836C2"/>
<path d="M501.043 58.2413C501.043 63.778 499.997 68.4883 497.902 72.3723C495.823 76.2562 492.987 79.2229 489.393 81.2722C485.813 83.3052 481.79 84.3217 477.322 84.3217C472.82 84.3217 468.78 83.2969 465.201 81.2475C461.623 79.1981 458.794 76.2315 456.716 72.3476C454.639 68.4636 453.599 63.7616 453.599 58.2413C453.599 52.7047 454.639 47.9944 456.716 44.1105C458.794 40.2265 461.623 37.268 465.201 35.2352C468.78 33.1858 472.82 32.1611 477.322 32.1611C481.79 32.1611 485.813 33.1858 489.393 35.2352C492.987 37.268 495.823 40.2265 497.902 44.1105C499.997 47.9944 501.043 52.7047 501.043 58.2413ZM490.183 58.2413C490.183 54.6549 489.648 51.6304 488.576 49.1678C487.522 46.7052 486.028 44.8377 484.1 43.5651C482.17 42.2923 479.911 41.656 477.322 41.656C474.731 41.656 472.473 42.2923 470.544 43.5651C468.614 44.8377 467.114 46.7052 466.042 49.1678C464.986 51.6304 464.459 54.6549 464.459 58.2413C464.459 61.8278 464.986 64.8524 466.042 67.3149C467.114 69.7775 468.614 71.6451 470.544 72.9177C472.473 74.1902 474.731 74.8267 477.322 74.8267C479.911 74.8267 482.17 74.1902 484.1 72.9177C486.028 71.6451 487.522 69.7775 488.576 67.3149C489.648 64.8524 490.183 61.8278 490.183 58.2413Z" fill="#5BFF8D"/>
<path d="M411.764 81.0867C412.501 82.1633 411.732 83.6275 410.43 83.6275H401.128C400.596 83.6275 400.098 83.3658 399.797 82.9275L378.312 51.777C378.266 51.7111 378.192 51.6717 378.111 51.6717C377.977 51.6717 377.868 51.7809 377.868 51.9156V82.005C377.868 82.9011 377.142 83.6275 376.248 83.6275H368.776C367.882 83.6275 367.157 82.9011 367.157 82.005V34.4777C367.157 33.5816 367.882 32.8553 368.776 32.8553H377.868C378.402 32.8553 378.901 33.1186 379.203 33.5593L411.764 81.0867Z" fill="#5BFF8D"/>
<path d="M439.634 48.1667C438.916 48.2309 438.252 47.8045 437.927 47.1582C437.57 46.4439 437.155 45.7976 436.682 45.2192C435.976 44.3366 435.142 43.6145 434.182 43.053C433.235 42.4736 432.174 42.0623 430.992 41.8192C429.829 41.5744 428.557 41.5137 427.177 41.6367C424.598 41.8668 422.389 42.7109 420.548 44.1694C418.723 45.6263 417.379 47.6295 416.512 50.179C415.643 52.7122 415.365 55.7401 415.679 59.2632C415.992 62.7861 416.791 65.7346 418.078 68.1088C419.365 70.4828 421.044 72.2331 423.113 73.3593C425.182 74.469 427.548 74.9052 430.209 74.6679C432.624 74.4526 434.647 73.8409 436.28 72.8323C437.927 71.8061 439.131 70.4624 439.894 68.8015C440.653 67.1836 440.953 65.3316 440.792 63.2455C440.783 63.1546 440.858 63.0777 440.949 63.083C441.134 63.0938 441.137 63.3645 440.953 63.3807L430.855 64.2814C430.362 64.3253 429.928 63.9613 429.884 63.4686L429.393 57.9268C429.314 57.0342 429.971 56.2464 430.861 56.1669L448.753 54.5715C449.644 54.4921 450.429 55.1512 450.509 56.0436L450.931 60.7986C451.325 65.2434 450.727 69.1463 449.139 72.5068C447.549 75.8511 445.187 78.5341 442.055 80.5555C438.923 82.5606 435.237 83.7521 430.998 84.1301C426.268 84.5519 422.02 83.8772 418.254 82.1057C414.485 80.3179 411.427 77.5789 409.08 73.8891C406.747 70.1812 405.345 65.6603 404.871 60.3265C404.507 56.2273 404.775 52.5201 405.672 49.2044C406.585 45.8707 408.017 42.9885 409.971 40.5578C411.923 38.127 414.277 36.1999 417.032 34.7761C419.786 33.3524 422.831 32.4918 426.164 32.1946C429.023 31.9397 431.721 32.1221 434.26 32.742C436.796 33.3453 439.085 34.3195 441.125 35.664C443.181 37.0071 444.91 38.6699 446.31 40.6522C447.363 42.1303 448.181 43.7514 448.762 45.5154C449.07 46.45 448.389 47.386 447.41 47.4734L439.634 48.1667Z" fill="#5BFF8D"/>
<path fill-rule="evenodd" clip-rule="evenodd" d="M326.134 83.6275H318.103C316.99 83.6275 316.21 82.5292 316.572 81.4757L332.944 33.9482C333.169 33.2942 333.783 32.8553 334.472 32.8553H345.967C346.658 32.8553 347.273 33.2945 347.498 33.9489L363.846 81.4764C364.208 82.5299 363.427 83.6275 362.315 83.6275H354.284C353.583 83.6275 352.962 83.1747 352.745 82.5061L349.357 72.05H331.067L327.673 82.5069C327.456 83.1752 326.835 83.6275 326.134 83.6275ZM339.962 44.646C339.999 44.5336 340.102 44.4575 340.221 44.4575C340.339 44.4575 340.444 44.5337 340.48 44.6462L346.643 63.6707H333.787L339.962 44.646Z" fill="#5BFF8D"/>
<path d="M299.762 33.7796C299.757 32.8371 300.519 32.083 301.459 32.083H311.93C312.852 32.083 313.606 32.7974 313.623 33.7223C313.784 41.9738 314.476 76.874 313.623 81.4764C312.697 86.4768 309.278 90.6309 298.669 100.775C298.057 101.359 297.123 101.394 296.473 100.893C296.332 100.787 296.205 100.661 296.065 100.553L287.958 93.375C287.817 93.2672 287.68 93.1524 287.578 93.0065C287.094 92.3021 287.208 91.3205 287.87 90.7364C297.79 81.9805 299.542 78.0336 299.762 75.9811C299.964 74.1093 299.803 41.7078 299.762 33.7796Z" fill="#5BFF8D"/>
<path d="M16.731 67.5197H41.3713V44.4554C41.3713 42.9661 44.1705 42.9149 44.7129 44.0844C44.7129 44.0844 55.0535 62.9492 61.8985 75.6C69.7844 73.3818 69.5097 69.3022 69.5097 66.8292V53.1784C68.4581 53.1784 67.5553 53.1784 67.0929 52.507L42.9757 7.42026C42.4822 6.57248 42.1022 6.36306 41.1825 6.36307H18.6496C17.3382 6.36306 16.731 6.98393 16.731 8.45068V67.5197Z" fill="#7836C2"/>
<path d="M41.3713 67.5197H16.731C16.9545 74.3694 19.4043 79.1221 24.1708 84.6372C40.1232 103.095 85.8107 100.394 95.421 75.6C96.8314 71.9614 96.8723 69.3375 97.0004 65.7334V8.44741C97.0004 7.94026 97.0004 6.36307 95.054 6.36307L71.0469 6.36307C69.8777 6.36307 69.1079 6.97382 69.1079 8.44741L69.5097 53.1784V66.8292C69.5097 69.3022 69.7844 73.3818 61.8985 75.6C53.5618 77.945 42.0947 74.3322 41.3713 67.5197Z" fill="#5BFF8D"/>
</svg>
